<?xml version="1.0" standalone="no"?>
<!DOCTYPE svg PUBLIC "-//W3C//DTD SVG 1.1//EN" "http://www.w3.org/Graphics/SVG/1.1/DTD/svg11.dtd" >
<svg xmlns="http://www.w3.org/2000/svg" xmlns:xlink="http://www.w3.org/1999/xlink" version="1.1">
<metadata></metadata>
<defs>
<font id="puritanregular" horiz-adv-x="1024" >
<font-face units-per-em="2048" ascent="1638" descent="-410" />
<missing-glyph horiz-adv-x="559" />
<glyph horiz-adv-x="0" />
<glyph horiz-adv-x="0" />
<glyph horiz-adv-x="559" />
<glyph unicode=" "  horiz-adv-x="559" />
<glyph unicode="&#x09;" horiz-adv-x="559" />
<glyph unicode="&#xa0;" horiz-adv-x="559" />
<glyph unicode="!" horiz-adv-x="481" d="M117 90q0 50 33 84q33 35 81 35q52 0 86 -34q35 -35 35 -85q0 -51 -35 -84t-86 -33q-48 0 -81 34t-33 83zM156 393v1053h174v-1053h-174z" />
<glyph unicode="&#x22;" horiz-adv-x="673" d="M141 1280q0 -50 30 -156q31 -109 56 -151h27q23 46 51 151q29 108 29 156q0 115 -96 115q-97 0 -97 -115zM430 1280q0 -50 30 -156q31 -109 56 -151h29q23 46 51 151q29 108 29 156q0 115 -97 115q-98 0 -98 -115z" />
<glyph unicode="#" horiz-adv-x="1097" d="M141 797v106l209 23v161l-207 -22v106l209 23v154l117 12l-2 -154l166 17v153l119 17l-4 -158l163 18v-106l-163 -19v-159l161 16v-106l-164 -17v-198l-116 -13l2 199l-164 -19l-2 -198l-117 -12l2 198zM467 938l164 18v160l-164 -16v-162z" />
<glyph unicode="$" horiz-adv-x="1097" d="M158 141l96 127q117 -137 285 -137q98 0 160 56q63 57 63 155q0 99 -96 154q-23 14 -183 71q-135 50 -196 109q-90 88 -90 242q0 117 73 200q74 84 191 113v182h182v-176q125 -23 246 -121l-90 -119q-115 97 -236 97q-182 0 -182 -187q0 -109 188 -172q203 -68 269 -123 q98 -83 98 -266q0 -296 -293 -358v-193h-182v187q-209 28 -303 159z" />
<glyph unicode="%" horiz-adv-x="1097" d="M45 1087q0 105 59 174q60 70 160 70q101 0 161 -70q60 -71 60 -174q0 -111 -55 -176q-56 -71 -166 -71q-106 0 -163 69q-56 68 -56 178zM68 -109l772 1395l141 -53l-762 -1393zM170 1081q0 -46 23 -86q27 -45 71 -45q94 0 94 131q0 50 -22 88q-29 48 -74 48 q-44 0 -72 -48q-20 -37 -20 -88zM596 250q0 106 61 177q62 73 164 73t163 -73q60 -72 60 -177q0 -112 -53 -180q-60 -74 -170 -74q-111 0 -169 70q-56 68 -56 184zM725 242q0 -131 96 -131q48 0 72 45q22 37 22 86q0 52 -22 90q-27 49 -74 49t-74 -49q-20 -37 -20 -90z" />
<glyph unicode="&#x26;" horiz-adv-x="1136" d="M51 346q0 120 66 225q65 103 174 164q-92 128 -92 256q0 137 95 229q94 91 232 91q172 0 308 -148l-97 -98q-92 115 -225 115q-152 0 -152 -158q0 -91 62 -213q107 44 227 49l29 -125q-109 0 -178 -33q159 -220 264 -327q29 104 29 143q0 46 -21 129l143 12 q15 -91 15 -147q0 -112 -45 -246q52 -61 190 -129l-94 -127q-83 28 -195 127q-150 -153 -321 -153q-178 0 -291 92q-123 100 -123 272zM201 365q0 -110 71 -175t183 -65q135 0 227 117q-227 233 -322 387q-159 -89 -159 -264z" />
<glyph unicode="'" horiz-adv-x="397" d="M125 1284q0 -52 35 -162q34 -114 65 -149q33 53 63 151q29 96 29 160q0 115 -94 115q-98 0 -98 -115z" />
<glyph unicode="(" horiz-adv-x="651" d="M94 662q0 515 262 942l129 -62q-213 -495 -213 -880q0 -233 64 -457q27 -99 156 -426l-136 -62q-262 452 -262 945z" />
<glyph unicode=")" horiz-adv-x="647" d="M160 -221q125 317 155 422q66 221 66 452q0 396 -215 889l131 62q254 -416 254 -936q0 -512 -254 -951z" />
<glyph unicode="*" horiz-adv-x="563" d="M41 1063l166 102l-164 105l53 90l140 -125l-9 184l97 -2l-11 -182l136 125l51 -90l-158 -103l160 -104l-53 -90l-136 123l9 -183h-97l6 183l-135 -123z" />
<glyph unicode="+" horiz-adv-x="1019" d="M109 578v129h337v360h125v-360h342v-129h-342v-381h-125v381h-337z" />
<glyph unicode="," horiz-adv-x="520" d="M133 -147l90 -25q188 245 189 418h-199q0 -73 -25 -201q-23 -126 -55 -192z" />
<glyph unicode="-" horiz-adv-x="778" d="M102 547v190h574v-190h-574z" />
<glyph unicode="." horiz-adv-x="477" d="M125 131q0 60 39 105t98 45q60 0 97 -45q38 -46 38 -105q0 -58 -38 -104q-37 -45 -97 -45q-59 0 -98 45t-39 104z" />
<glyph unicode="/" horiz-adv-x="788" d="M27 -313l606 1755l166 -35l-609 -1755z" />
<glyph unicode="0" d="M35 524q0 224 132 374q133 151 345 151q213 0 348 -158q127 -146 127 -365q0 -224 -119 -376q-129 -168 -354 -168q-224 0 -354 157q-125 151 -125 385zM164 524q0 -159 90 -282q101 -136 256 -136q170 0 266 132q82 112 82 288q0 168 -96 286t-250 118q-158 0 -258 -129 q-90 -117 -90 -277z" />
<glyph unicode="1" d="M250 915v123h424v-1038h-156v915h-268z" />
<glyph unicode="2" d="M170 872q162 191 340 191q143 0 241 -86q97 -85 97 -232q0 -206 -180 -356l-277 -231h535v-158h-752l-2 158l338 291q96 83 137 143q45 69 45 151q-2 73 -53 125q-52 52 -125 52q-137 0 -250 -148z" />
<glyph unicode="3" d="M145 -209l78 109q131 -125 258 -125q129 0 200 74q73 76 73 217q0 103 -62 180q-77 92 -217 92q-5 0 -137 2v129q92 0 135 12q193 60 193 252q0 83 -53 136t-124 53q-136 0 -219 -142l-104 88q159 197 319 197q140 0 232 -80q102 -90 102 -248q0 -92 -41 -172 q-44 -87 -121 -127q121 -24 193 -132t72 -240q0 -190 -124 -311q-125 -122 -327 -122q-189 0 -326 158z" />
<glyph unicode="4" d="M55 0v156l584 886h119v-886h205v-156h-205v-344h-133v344h-570zM242 156h383v596z" />
<glyph unicode="5" horiz-adv-x="1196" d="M106 -172l72 94q124 -153 314 -153q140 0 219 106q71 95 71 234q0 130 -82 213q-72 75 -174 75q-114 0 -241 -100l-140 61v682h709v-125h-553v-456q102 102 283 102q127 0 239 -115q123 -129 123 -325q0 -184 -123 -328q-134 -160 -336 -160q-108 0 -221 58 q-110 56 -160 137z" />
<glyph unicode="6" d="M49 547q0 338 148 557q167 242 458 242q161 0 312 -78l-60 -125q-130 67 -254 67q-179 0 -301 -150q-121 -150 -129 -372q150 213 342 213q160 0 279 -131q127 -139 127 -346q0 -188 -130 -328q-131 -141 -309 -141q-205 0 -333 131q-150 153 -150 461zM227 444 q0 -140 76 -241q85 -117 229 -117q118 0 207 109q84 102 84 221q0 157 -83 252q-82 94 -210 94q-115 0 -206 -86q-97 -92 -97 -232z" />
<glyph unicode="7" d="M158 909v123h764v-125l-555 -1253l-160 45l538 1210h-587z" />
<glyph unicode="8" d="M88 340q0 115 68 221q78 114 215 176q-114 73 -158 127q-59 75 -59 180q0 160 112 244q96 72 248 72q135 0 236 -78q108 -85 108 -223q0 -199 -221 -318q309 -129 309 -397q0 -173 -104 -278q-118 -123 -334 -123q-172 0 -289 98q-131 111 -131 299zM248 346 q0 -139 100 -217q77 -59 172 -59q119 0 195 73t76 201q0 134 -84 213q-61 57 -197 109q-125 -68 -180 -121q-82 -83 -82 -199zM293 1053q0 -154 203 -246q223 88 223 237q0 201 -219 201q-207 0 -207 -192z" />
<glyph unicode="9" d="M57 563q0 201 111 336q118 145 309 145q192 0 332 -131q170 -158 170 -450q0 -317 -105 -551q-139 -313 -419 -313q-238 0 -387 145l59 125q145 -135 344 -135q170 0 272 219q83 179 88 403q-75 -133 -139 -184q-86 -74 -213 -72q-182 1 -305 146q-117 136 -117 317z M207 569q0 -123 78 -223q82 -110 200 -110q134 0 228 101t94 238q0 131 -92 235q-91 103 -238 103q-117 0 -196 -116q-74 -106 -74 -228z" />
<glyph unicode=":" horiz-adv-x="499" d="M135 131q0 61 40 105q41 45 97 45q60 0 99 -45t39 -105q0 -59 -39 -104t-99 -45q-56 0 -97 45q-40 44 -40 104zM135 887q0 60 40 104q41 45 97 45q60 0 99 -45t39 -104q0 -60 -39 -105t-99 -45q-56 0 -97 45q-40 44 -40 105z" />
<glyph unicode=";" horiz-adv-x="520" d="M133 -147l90 -25q188 245 189 418h-199q0 -73 -25 -201q-23 -126 -55 -192zM160 885q0 59 41 103t100 44t97 -44t38 -103t-39 -103q-39 -43 -96 -43q-60 0 -100 43q-41 44 -41 103z" />
<glyph unicode="&#x3c;" horiz-adv-x="749" d="M55 592l447 491l151 -6l-383 -493l383 -492l-149 -6z" />
<glyph unicode="=" horiz-adv-x="903" d="M104 276v134h693v-134h-693zM104 588v133h693v-133h-693z" />
<glyph unicode="&#x3e;" horiz-adv-x="747" d="M49 1077l154 6l444 -491l-444 -506l-152 6l383 492z" />
<glyph unicode="?" horiz-adv-x="991" d="M78 1106q117 289 393 289q154 0 263 -101q108 -100 108 -254q0 -166 -140 -280q-15 -11 -100 -78q-38 -32 -61 -90q-5 -8 -35 -105q-4 -10 4 -100h-141q-11 86 -11 131q0 96 41 166q33 58 119 130q87 73 107 97q57 66 57 131q0 91 -57 148t-148 57q-193 0 -262 -213z M334 90q0 50 33 84q33 35 82 35q52 0 86 -34t34 -85t-34 -84q-35 -33 -86 -33q-49 0 -82 34q-33 35 -33 83z" />
<glyph unicode="@" horiz-adv-x="2068" d="M109 487q0 394 274 668q275 275 668 275q390 0 622 -244t232 -637q0 -217 -150 -385q-67 -74 -176 -129q-117 -60 -209 -60q-79 0 -125 64q-40 57 -33 139q-153 -201 -344 -201q-313 0 -313 433q0 229 141 424q158 215 387 215q68 0 138 -25q76 -29 110 -80l6 84h150 l-131 -835q2 -27 25 -48q23 -20 51 -22q35 -2 108 43q65 38 96 74q46 51 87 146q40 93 40 163q0 334 -190 536q-191 203 -522 203q-335 0 -568 -233t-233 -568t209 -573q219 -248 551 -248q288 0 477 82q221 96 358 318l137 -89q-153 -257 -417 -364q-213 -88 -555 -88 q-391 0 -650 289q-251 279 -251 673zM725 440q0 -132 25 -194q47 -115 190 -115q90 0 184 98q94 99 111 191l72 395q-27 51 -101 80q-63 27 -129 27q-92 0 -196 -88q-156 -134 -156 -394z" />
<glyph unicode="A" horiz-adv-x="1163" d="M59 0l437 1339h163l443 -1331l-174 -28l-121 387h-461l-119 -387zM389 508h377l-191 620z" />
<glyph unicode="B" horiz-adv-x="1073" d="M129 4v1309l340 6q1 0 4.5 0.5t10 1t12.5 0.5h28q159 0 250 -76q98 -82 98 -237q0 -172 -86 -234q-48 -32 -135 -55q314 -68 314 -342q0 -185 -121 -285q-108 -92 -291 -92h-8zM311 137h193q284 0 284 242q0 119 -83 189q-85 71 -205 71h-189v-502zM311 768l142 -2h8 q107 0 172 53q78 61 78 168q-1 211 -230 211q-29 0 -170 -6v-424z" />
<glyph unicode="C" horiz-adv-x="1103" d="M63 674q0 278 146 469q159 208 432 209q98 0 227 -43q98 -33 162 -70l-78 -162q-188 115 -301 115q-203 0 -315 -195q-88 -152 -88 -348q0 -193 94 -336q108 -166 293 -166q174 0 328 89l79 -134q-124 -69 -196 -90q-90 -28 -209 -28q-278 0 -434 213q-140 190 -140 477z " />
<glyph unicode="D" horiz-adv-x="1157" d="M129 4v1315q141 6 299 6q346 0 504 -158q159 -159 160 -505v-8q0 -314 -165 -485q-167 -173 -487 -173q-62 0 -155 4t-156 4zM311 152h185q195 0 303 151q98 134 98 336q0 555 -416 555q-71 0 -170 -4v-1038z" />
<glyph unicode="E" horiz-adv-x="1001" d="M129 0v1311h735v-148h-553v-395h516v-154l-516 2v-460l547 2v-158h-729z" />
<glyph unicode="F" horiz-adv-x="1003" d="M129 0v1311h737v-148h-555v-395h520v-154h-520v-614h-182z" />
<glyph unicode="G" horiz-adv-x="1191" d="M63 666q0 246 134 448q158 238 419 238q100 0 218 -33q130 -34 196 -90l-76 -154q-169 117 -319 117q-194 0 -301 -199q-84 -156 -84 -344q0 -189 88 -332q105 -170 280 -170q145 0 265 64v405h-291v152h471v-643q-124 -74 -205 -102q-103 -35 -233 -35q-267 0 -420 211 q-142 191 -142 467z" />
<glyph unicode="H" horiz-adv-x="1191" d="M129 0v1311h182v-543h572v543h180v-1311h-180v614h-572v-614h-182z" />
<glyph unicode="I" horiz-adv-x="440" d="M129 0v1315h182v-1315h-182z" />
<glyph unicode="J" horiz-adv-x="440" d="M-303 -223l94 137q67 -72 137 -72q201 0 201 283v1182h182v-1166q0 -467 -409 -467q-120 0 -205 103z" />
<glyph unicode="K" horiz-adv-x="1087" d="M129 0v1311h182v-645q318 418 512 696l144 -102l-443 -574q86 -140 273 -358l280 -324l-217 -47l-452 608l-97 -143v-422h-182z" />
<glyph unicode="L" horiz-adv-x="1026" d="M129 0v1313h182v-1166h586v-147h-768z" />
<glyph unicode="M" horiz-adv-x="1624" d="M152 0v1315h260l405 -1055l416 1055h240v-1315h-183v1047l-397 -1049h-170l-404 1057v-1055h-167z" />
<glyph unicode="N" horiz-adv-x="1191" d="M129 0v1319h152l614 -932v924h168v-1288l-129 -46q-185 333 -635 973v-948z" />
<glyph unicode="O" horiz-adv-x="1318" d="M66 659q0 279 159 465q169 199 443 199q272 0 436 -199q151 -185 151 -465q0 -295 -151 -485q-164 -207 -451 -207q-286 0 -444 209q-143 185 -143 483zM236 641q0 -201 106 -350q118 -166 311 -166q195 0 320 164q114 151 114 350q0 208 -106 360q-118 172 -317 172 q-200 0 -322 -170q-106 -151 -106 -360z" />
<glyph unicode="P" horiz-adv-x="940" d="M129 0v1311l387 8h12q158 0 250 -104q96 -108 96 -275q0 -164 -106 -282q-105 -117 -268 -117q-71 0 -189 8v-549h-182zM311 676l160 2q102 2 164 80q59 71 59 176q0 134 -50 200q-49 64 -146 64h-6l-181 -4v-518z" />
<glyph unicode="Q" horiz-adv-x="1347" d="M63 662q0 278 160 464q170 197 445 197q272 0 434 -195q151 -182 151 -460q0 -130 -30 -254q-39 -154 -111 -226l240 -211l-109 -120l-250 219q-154 -109 -342 -109q-285 0 -442 211q-146 191 -146 484zM233 645q0 -197 105 -348q118 -172 307 -172q114 0 219 65 l-153 136l110 118l158 -139q106 149 106 342q0 211 -104 357q-117 165 -319 165t-320 -168q-109 -151 -109 -356z" />
<glyph unicode="R" horiz-adv-x="1085" d="M129 0v1313l414 6q354 -5 354 -353v-10q-1 -140 -86 -231t-227 -119l221 -295q87 -113 270 -291l-227 -40q-108 108 -242 301q-97 138 -205 315l-90 -4v-592h-182zM311 729h133q147 0 216 54t69 196q0 215 -227 215h-13l-178 -4v-461z" />
<glyph unicode="S" horiz-adv-x="1007" d="M84 150l94 131q125 -146 318 -146q114 0 182 63q67 63 67 177q0 138 -161 205l-301 125q-158 100 -158 306q0 157 123 259q112 94 272 94q188 0 346 -125l-86 -129q-107 98 -260 98q-209 0 -209 -207q0 -128 213 -200q227 -78 293 -135q105 -90 105 -287 q0 -190 -120 -295q-119 -104 -313 -104q-118 0 -223 40q-119 44 -182 130z" />
<glyph unicode="T" horiz-adv-x="1097" d="M63 1171v138h969v-138h-381v-1171h-182v1171h-406z" />
<glyph unicode="U" horiz-adv-x="1169" d="M129 471v840h182v-840q0 -352 260 -352q147 0 220 106q65 90 65 246v840h184v-840q0 -227 -125 -367q-124 -139 -348 -139q-216 0 -331 148q-107 136 -107 358z" />
<glyph unicode="V" horiz-adv-x="1122" d="M84 1290l174 47l326 -1069l325 1069l152 -47l-424 -1310h-133z" />
<glyph unicode="W" horiz-adv-x="1615" d="M33 1282l178 39l270 -1022l277 1001h131l268 -999l279 1020l139 -39l-365 -1294h-106l-291 952l-291 -952h-129z" />
<glyph unicode="X" horiz-adv-x="1130" d="M74 10l381 639l-357 633l187 39l274 -498l264 500l154 -41l-338 -598l418 -674l-195 -41l-317 570l-285 -570z" />
<glyph unicode="Y" horiz-adv-x="1030" d="M59 1284l164 47l297 -608l293 608l156 -47l-363 -727v-557h-184v557z" />
<glyph unicode="Z" horiz-adv-x="1114" d="M129 158l659 1018l-624 -5v138h805l16 -148l-655 -1005h649v-156h-836z" />
<glyph unicode="[" horiz-adv-x="550" d="M115 -233v1749h313v-105h-145v-1501h166v-143h-334z" />
<glyph unicode="\" horiz-adv-x="788" d="M25 1407l163 35l609 -1755l-166 -35z" />
<glyph unicode="]" horiz-adv-x="544" d="M102 -90h166v1501h-147v105h309v-1749h-328v143z" />
<glyph unicode="^" horiz-adv-x="1097" d="M225 1034l322 355l325 -355l-86 -106l-239 284l-236 -284z" />
<glyph unicode="_" horiz-adv-x="1097" d="M10 -102h1075v-121h-1075v121z" />
<glyph unicode="`" horiz-adv-x="673" d="M117 1323l96 133l430 -196l-98 -121z" />
<glyph unicode="a" horiz-adv-x="1005" d="M84 260q0 167 100 240q67 47 248 90q65 16 221 31v129q0 67 -52 110t-122 43q-112 0 -272 -131l-84 115q62 56 168 106q115 56 188 56q143 0 238 -88q96 -89 96 -230v-577q11 -41 43 -41h2q25 0 84 43l33 -107q-67 -72 -168 -72q-84 0 -129 99q-62 -47 -107 -68 q-91 -41 -204 -41q-130 0 -206 82q-77 83 -77 211zM231 258q0 -74 42 -118t116 -44q81 0 164 43q100 51 100 131v207q-59 0 -155 -18q-56 -11 -117 -27q-149 -39 -150 -174z" />
<glyph unicode="b" horiz-adv-x="1054" d="M131 0v1434h162v-516q140 131 256 131q209 0 328 -160q108 -144 108 -359q0 -235 -94 -380q-111 -170 -334 -170q-131 0 -264 102l-29 -82h-133zM293 221q38 -50 113 -78q68 -28 135 -28q260 0 260 409q0 150 -51 252q-68 131 -203 131q-187 0 -254 -147v-539z" />
<glyph unicode="c" horiz-adv-x="980" d="M80 496q0 235 119 383q126 159 350 159h6q181 -2 322 -108l-86 -135q-135 104 -259 104q-145 0 -221 -139q-61 -112 -61 -273q0 -148 74 -254q83 -116 227 -116q147 0 274 112l80 -106q-151 -148 -354 -148q-268 0 -391 207q-80 136 -80 314z" />
<glyph unicode="d" horiz-adv-x="1046" d="M76 498q0 229 102 379q118 172 338 172q143 0 242 -119v497h160v-1427h-136l-24 86q-167 -113 -285 -113q-190 0 -301 174q-96 150 -96 351zM258 520q0 -154 57 -260q69 -135 211 -135q125 0 232 92v561q-57 78 -106 104q-47 25 -144 25q-138 0 -201 -133 q-49 -99 -49 -254z" />
<glyph unicode="e" horiz-adv-x="1005" d="M80 506q0 234 123 379q129 153 358 153q167 0 268 -108q101 -109 101 -279v-125h-676q0 -303 172 -381q68 -30 141 -30q121 0 269 131l82 -115q-164 -156 -365 -156q-278 0 -397 209q-76 133 -76 322zM268 655h500v25q0 223 -221 223q-123 0 -186 -60t-93 -188z" />
<glyph unicode="f" horiz-adv-x="663" d="M37 881v133h160v135q0 163 73 264q83 115 240 115q92 0 141 -21q14 -5 115 -69l-78 -105q-98 63 -176 64h-4q-83 0 -125 -88q-31 -71 -31 -166v-129h285v-133h-285v-881h-155v881h-160z" />
<glyph unicode="g" horiz-adv-x="1046" d="M76 -225q0 132 141 266q-44 16 -87 71q-42 54 -42 101q0 55 49 104l84 84q-127 108 -129 285q0 153 119 266q111 101 267 101h3q95 -2 181 -47q72 -38 112 -97l266 41v-135l-219 6q33 -69 33 -135q0 -155 -104 -256q-120 -115 -291 -115q-99 0 -135 25q-80 -50 -80 -111 q0 -55 78 -71q40 -8 200 -8q209 0 287 -29q135 -51 135 -223q0 -177 -184 -279q-157 -88 -346 -88h-6q-131 0 -222 55q-110 67 -110 189zM221 -174q0 -85 82 -131q67 -37 158 -37q117 0 213 57q112 67 112 176q0 134 -233 134q-73 0 -203 -7q-52 -2 -92 -73 q-37 -62 -37 -119zM246 678q0 -100 62 -169q63 -71 159 -71q113 0 182 74q64 67 64 178q0 96 -72 170q-68 68 -168 68q-102 0 -165 -76q-62 -75 -62 -174z" />
<glyph unicode="h" horiz-adv-x="1048" d="M129 0v1425h162v-526q159 148 293 148q142 0 239 -106t97 -249v-692h-160v666q0 99 -45 165q-51 76 -148 76q-81 0 -174 -65q-102 -69 -102 -146v-696h-162z" />
<glyph unicode="i" horiz-adv-x="477" d="M129 1346q0 46 32 78t79 32t77 -32q31 -33 31 -78q0 -46 -31 -80q-30 -33 -77 -33q-48 0 -79 33q-32 34 -32 80zM145 0v1014h166v-1014h-166z" />
<glyph unicode="j" horiz-adv-x="477" d="M-27 -293l66 -153q295 112 295 313v1147h-162v-1057q0 -141 -53 -180q-63 -46 -146 -70zM156 1348q0 47 31 78q32 32 79 32t79 -32t32 -78q0 -47 -32 -79t-79 -32t-79 32q-31 31 -31 79z" />
<glyph unicode="k" horiz-adv-x="974" d="M129 0v1427h162v-862l446 502l140 -94l-406 -416l481 -520l-143 -88l-449 514l-69 -70v-393h-162z" />
<glyph unicode="l" horiz-adv-x="479" d="M160 0v1430h159v-1430h-159z" />
<glyph unicode="m" horiz-adv-x="1589" d="M129 0v1014h162v-144q156 168 287 168q83 0 151 -53q66 -51 100 -133q173 197 324 197q127 0 217 -101q90 -100 90 -229v-719h-162v709q0 198 -180 198q-57 0 -141 -65q-105 -79 -105 -183v-659h-159v719q0 81 -44 134q-43 52 -124 52q-79 0 -167 -74q-87 -73 -87 -153 v-678h-162z" />
<glyph unicode="n" horiz-adv-x="1048" d="M129 0v1014h162v-115q78 75 133 105q76 43 162 43q140 0 237 -106t97 -249v-692h-160v666q0 99 -45 165q-51 76 -148 76q-85 0 -174 -65q-102 -74 -102 -170v-672h-162z" />
<glyph unicode="o" horiz-adv-x="1118" d="M80 516q0 265 166 412q134 121 319 121q184 0 314 -121q159 -147 159 -412q0 -185 -94 -334q-129 -205 -381 -205q-276 0 -399 207q-84 141 -84 332zM256 504q0 -160 68 -266q79 -127 231 -127q159 0 238 129q69 108 69 274q0 158 -63 266q-77 131 -224 131 q-162 0 -247 -127q-72 -111 -72 -280z" />
<glyph unicode="p" horiz-adv-x="1058" d="M129 -403v1417h162v-96q136 131 239 131q453 0 453 -502q0 -246 -100 -397q-120 -177 -355 -177q-129 0 -237 117v-493h-162zM291 207q125 -96 248 -96q131 0 204 143q62 122 62 264q0 393 -277 393q-76 0 -146 -48q-69 -47 -91 -118v-538z" />
<glyph unicode="q" horiz-adv-x="1046" d="M76 526q0 207 90 346q116 177 349 177h3q59 0 129 -35q68 -34 107 -82v82h164v-1417h-164v514q-193 -138 -293 -138q-192 0 -297 191q-88 155 -88 362zM252 508q0 -141 65 -252q78 -131 209 -131q109 0 228 92v531q-22 72 -87 119q-64 46 -143 46q-150 0 -219 -137 q-53 -106 -53 -268z" />
<glyph unicode="r" horiz-adv-x="700" d="M129 0v1014h162v-168q121 190 254 190q37 0 114 -32l-49 -164q-34 24 -100 24h-10q-55 0 -132 -80t-77 -135v-649h-162z" />
<glyph unicode="s" horiz-adv-x="894" d="M98 90l82 125q106 -102 275 -102q71 0 133 53q61 52 61 123q0 111 -162 155q-121 32 -245 78q-119 62 -119 209q0 148 94 236q91 86 237 86h7q136 -1 295 -95l-54 -129q-146 93 -247 93q-179 0 -179 -150q0 -82 82 -110l295 -97q164 -77 164 -239q0 -166 -105 -260 q-106 -95 -274 -95q-210 0 -340 119z" />
<glyph unicode="t" horiz-adv-x="718" d="M43 881v135h162v207h162v-207h264v-137l-264 2v-609q0 -137 116 -137q63 0 160 92l80 -110q-114 -133 -285 -133q-116 0 -178 104q-55 88 -55 209v584h-162z" />
<glyph unicode="u" horiz-adv-x="1046" d="M129 328v686h162v-678q0 -227 180 -227q86 0 184 71q99 72 99 156v678h159v-1014h-145l-23 106q-150 -143 -313 -143q-139 0 -225 115q-78 106 -78 250z" />
<glyph unicode="v" horiz-adv-x="950" d="M45 981l162 45l278 -790l265 790l155 -45l-370 -1006h-111z" />
<glyph unicode="w" horiz-adv-x="1505" d="M55 981l158 41l227 -809l252 795h144l262 -793l215 807l149 -41l-313 -999h-125l-266 757l-271 -757h-129z" />
<glyph unicode="x" horiz-adv-x="1007" d="M39 43l371 461l-332 446l151 90l289 -405l299 403l127 -71l-346 -453l381 -473l-137 -94l-336 442l-330 -438z" />
<glyph unicode="y" horiz-adv-x="983" d="M45 -365l51 146q58 -28 103 -29h3q93 0 169 137l84 197l-394 893l158 43l309 -725l265 723l145 -35l-428 -1157q-35 -97 -128 -163t-196 -66q-34 0 -141 36z" />
<glyph unicode="z" horiz-adv-x="987" d="M109 0v135l466 621q29 39 105 125h-551v131h741v-144l-450 -612q-22 -29 -92 -113h571v-143h-790z" />
<glyph unicode="{" horiz-adv-x="1097" d="M229 653l2 82q80 81 103 119q47 74 47 164q0 48 -6 139q-6 92 -6 139q0 412 325 412q55 0 152 -22l-31 -154q-84 27 -117 27q-92 0 -120 -43q-37 -55 -37 -236q0 -36 5 -134t5 -134q0 -148 -168 -299v-51q83 -61 135 -167q53 -109 53 -210q0 -48 -8 -166t-8 -166 q0 -123 10 -152q21 -59 94 -59q92 0 142 43l41 -154q-122 -39 -189 -34q-193 11 -250 178q-30 90 -30 329q0 51 4 124t4 124q0 178 -152 301z" />
<glyph unicode="|" horiz-adv-x="468" d="M174 -451v1856h180v-1856h-180z" />
<glyph unicode="}" horiz-adv-x="1097" d="M266 1686q97 22 152 22q325 0 325 -412q0 -48 -6 -139q-6 -92 -6 -139q0 -90 47 -164q23 -38 103 -119l2 -82q-152 -123 -152 -301q0 -51 4 -124t4 -124q0 -240 -34 -335q-60 -165 -246 -172q-68 -2 -189 34l41 154q50 -43 142 -43q104 0 104 127v84q0 48 -8 166t-8 166 q0 101 53 210q52 106 135 167v51q-168 151 -168 299q0 36 5 134t5 134q0 183 -36 236q-28 43 -121 43q-33 0 -117 -27z" />
<glyph unicode="~" horiz-adv-x="808" d="M170 928q76 90 178 90q71 0 168 -70q38 -28 72 -28q32 0 65 41q27 27 33 34l37 -143q-76 -76 -152 -76q-44 0 -119 57q-74 56 -110 56q-59 0 -133 -109z" />
<glyph unicode="&#xa1;" horiz-adv-x="481" d="M117 1329q0 49 34 83t82 34q51 0 85 -33t34 -84t-34 -85t-85 -34q-47 0 -82 35q-34 34 -34 84zM139 -211v1237h172v-1237h-172z" />
<glyph unicode="&#xa2;" horiz-adv-x="980" d="M78 496q0 206 90 346q100 157 293 190v176h182v-174q131 -23 236 -104l-88 -139q-128 100 -259 100q-148 0 -221 -135q-59 -106 -59 -269q0 -148 74 -249q83 -113 225 -113q155 0 274 108l82 -110q-119 -117 -264 -141v-164h-182v162q-220 33 -318 227q-65 127 -65 289z " />
<glyph unicode="&#xa3;" horiz-adv-x="974" d="M141 111q31 7 80 26q13 5 35 27q70 68 70 186q0 130 -29 266h-123v142h109q-31 191 -31 217q0 161 90 265q90 103 250 103q130 0 242 -65l-62 -125q-121 59 -168 59q-94 0 -153 -77q-54 -71 -54 -168q0 -32 35 -209h279v-142h-244q12 -124 12 -251q0 -158 -61 -209 q158 22 223 22q138 0 264 -35l-33 -157q-105 28 -264 28q-272 0 -444 -43z" />
<glyph unicode="&#xa4;" horiz-adv-x="1001" d="M76 645h205v94h-203l-2 152h205v420h583v-148h-401v-272h364v-154h-364v-92h364v-153h-364v-336l395 2v-158h-577v492h-203z" />
<glyph unicode="&#xa5;" horiz-adv-x="1087" d="M68 1313h184l270 -541l271 541h186l-365 -733v-37h177v-121h-177v-123h177v-121h-177v-174h-182v174h-182v121h182v123h-182v121h182v37z" />
<glyph unicode="&#xa6;" horiz-adv-x="372" d="M111 -37v561h157v-561h-157zM111 782v561h157v-561h-157z" />
<glyph unicode="&#xa7;" horiz-adv-x="802" d="M115 -72l65 101q89 -92 211 -92q50 0 92 35q43 36 43 83q0 79 -133 113q-7 2 -33 8.5t-45 11.5q-20 5 -34 13q-134 45 -134 174q0 123 95 186q-95 50 -95 158q0 106 71 172q69 65 177 63q108 -1 221 -71l-45 -103q-113 70 -180 70q-65 0 -92 -27t-27 -92q0 -35 56 -59 l131 -37q198 -57 198 -209q0 -124 -84 -186q84 -50 84 -158q0 -122 -76 -191q-77 -69 -200 -69q-159 0 -266 106zM272 387q0 -46 111 -76q9 -2 29.5 -8t33.5 -10q80 35 80 106q0 53 -43 80q-30 18 -110 39q-101 -12 -101 -131z" />
<glyph unicode="&#xa8;" horiz-adv-x="626" d="M-10 1225q0 46 28 75q29 31 74 31t74 -31t29 -75q0 -45 -29 -76t-74 -31t-74 31q-28 29 -28 76zM420 1225q0 44 29 75t73 31q43 0 73 -32q30 -31 30 -74q0 -45 -29 -76t-74 -31q-44 0 -73 31t-29 76z" />
<glyph unicode="&#xa9;" horiz-adv-x="1630" d="M137 647q0 282 198 480t480 198t480 -198t198 -480t-198 -480t-480 -198t-480 198t-198 480zM270 647q0 -227 159 -386t386 -159t386 159t159 386t-159 386t-386 159t-386 -159t-159 -386zM444 651q0 179 95 301q103 132 276 133q122 0 248 -71l-49 -105q-122 74 -193 74 q-131 0 -203 -125q-55 -95 -55 -223q0 -123 62 -215q69 -107 186 -107q107 0 209 58l51 -86q-143 -76 -260 -76q-179 0 -279 135q-88 122 -88 307z" />
<glyph unicode="&#xab;" horiz-adv-x="798" d="M10 592l316 332l143 -6l-266 -332l266 -330l-143 -6zM301 592l313 332l146 -6l-268 -332l268 -330l-146 -6z" />
<glyph unicode="&#xac;" horiz-adv-x="1255" d="M180 512v190h963v-645h-172v455h-791z" />
<glyph unicode="&#xad;" horiz-adv-x="778" d="M102 547v190h574v-190h-574z" />
<glyph unicode="&#xae;" horiz-adv-x="1630" d="M137 647q0 282 198 480t480 198t480 -198t198 -480t-198 -480t-480 -198t-480 198t-198 480zM270 647q0 -227 159 -386t386 -159t386 159t159 386t-159 386t-386 159t-385 -159q-158 -160 -158 -386h-2zM545 233v840q191 4 264 4q229 -1 227 -231q-1 -185 -200 -223 l141 -191q45 -60 174 -184l-145 -27q-118 118 -285 393l-59 -2v-379h-117zM662 700h86q96 0 139 34t43 126q0 139 -154 137l-114 -2v-295z" />
<glyph unicode="&#xaf;" horiz-adv-x="831" d="M215 1217v133h479v-133h-479z" />
<glyph unicode="&#xb0;" horiz-adv-x="559" d="M10 1192q0 114 79 190t194 76q114 0 190 -76t76 -190q0 -115 -76 -191q-75 -75 -190 -75q-116 0 -194 75q-79 76 -79 191zM119 1192q0 -72 46 -118t118 -46q69 0 113 47t44 117t-44 117t-113 47q-72 0 -118 -46t-46 -118z" />
<glyph unicode="&#xb1;" horiz-adv-x="1026" d="M109 573v127h335v359h127v-359h342v-127h-342v-378h-127v376zM135 25v110h766v-110h-766z" />
<glyph unicode="&#xb4;" horiz-adv-x="673" d="M117 1262l430 196l96 -133l-430 -184z" />
<glyph unicode="&#xb5;" horiz-adv-x="1040" d="M139 -401v1396h150v-700q0 -199 237 -199q74 0 145 68q70 67 70 141v692h164v-759q0 -173 80 -224q42 -28 55 -41l-131 -98q-136 78 -164 250l-129 -125q-56 -45 -122 -45q-60 0 -117 27q-65 29 -88 77v-460h-150z" />
<glyph unicode="&#xb6;" horiz-adv-x="1038" d="M102 1010q0 166 76 235q78 70 244 70h186v-1315h-141v690h-51q-316 0 -314 320zM754 0v1315h141v-1315h-141z" />
<glyph unicode="&#xb7;" horiz-adv-x="483" d="M125 846q0 61 38 111q39 51 99 51q59 0 100 -52q35 -50 35 -110q0 -61 -35 -111q-40 -51 -100 -51q-61 0 -99 50t-38 112z" />
<glyph unicode="&#xb8;" horiz-adv-x="419" d="M31 -350l73 69q61 -65 105 -65q74 0 74 70q0 79 -70 79q-29 0 -72 -30l-94 43l10 192l119 2l-8 -106q19 8 51 8q79 0 132 -51q52 -51 52 -131q0 -83 -56 -130q-58 -49 -140 -49q-133 0 -176 99z" />
<glyph unicode="&#xbb;" horiz-adv-x="804" d="M4 256l268 330l-268 332l148 6l311 -332l-311 -342zM295 256l268 330l-268 332l145 6l314 -332l-314 -342z" />
<glyph unicode="&#xbf;" horiz-adv-x="940" d="M70 143q0 204 153 312q194 139 160 526h164q14 -71 14 -158q0 -309 -164 -450q-92 -80 -110 -101q-58 -64 -58 -131q0 -89 58 -147q57 -57 147 -57q193 0 262 210l140 -69q-121 -289 -394 -289q-156 0 -264 99t-108 255zM342 1278q0 51 35 84t86 33q49 0 82 -34 q33 -35 33 -83q0 -50 -33 -84q-33 -35 -82 -35q-48 0 -85 35q-36 34 -36 84z" />
<glyph unicode="&#xc0;" horiz-adv-x="1187" d="M72 0l434 1339h166l440 -1331l-174 -28l-121 387h-461l-116 -387zM319 1589l97 133l430 -196l-98 -121zM399 508h377l-188 620z" />
<glyph unicode="&#xc1;" horiz-adv-x="1163" d="M72 0l434 1339h166l440 -1331l-174 -28l-121 387h-461l-116 -387zM319 1528l431 196l96 -133l-430 -184zM399 508h377l-188 620z" />
<glyph unicode="&#xc2;" horiz-adv-x="1163" d="M72 0l434 1339h166l440 -1331l-174 -28l-121 387h-461l-116 -387zM299 1343v146l281 231l290 -231v-146l-290 191zM399 508h377l-188 620z" />
<glyph unicode="&#xc3;" horiz-adv-x="1187" d="M72 0l434 1339h166l440 -1331l-174 -28l-121 387h-461l-116 -387zM270 1546q28 44 87 72q61 30 112 31t144 -69q94 -71 128 -71q51 0 103 52l53 -123q-18 -22 -71 -45q-54 -23 -81 -23q-50 0 -150 71q-98 70 -126 70q-80 0 -143 -86zM399 508h377l-188 620z" />
<glyph unicode="&#xc4;" horiz-adv-x="1187" d="M72 0l434 1339h166l440 -1331l-174 -28l-121 387h-461l-116 -387zM279 1528q0 46 28 75t74 29q43 0 73 -30q29 -29 29 -74q0 -47 -28 -76q-29 -31 -74 -31q-102 0 -102 107zM399 508h377l-188 620zM709 1528q0 46 28 75t74 29q43 0 73 -30q29 -29 29 -74q0 -47 -28 -76 q-29 -31 -74 -31q-102 0 -102 107z" />
<glyph unicode="&#xc5;" horiz-adv-x="1187" d="M72 0l434 1339h166l440 -1331l-174 -28l-121 387h-461l-116 -387zM399 508h377l-188 620zM414 1583q0 77 53 127q52 49 133 49t133 -49q53 -50 53 -127q0 -79 -53 -129q-52 -49 -133 -49t-133 49q-53 50 -53 129zM512 1583q0 -90 88 -90t88 90q0 88 -88 88t-88 -88z" />
<glyph unicode="&#xc6;" horiz-adv-x="1765" d="M59 0l437 1339h163l289 -874v846h735v-148h-553v-395h517v-154l-517 2v-460l547 2v-158h-757l-113 367h-461l-119 -387zM389 508h377l-191 620z" />
<glyph unicode="&#xc7;" horiz-adv-x="1167" d="M76 674q0 281 143 469q159 208 432 209q102 0 230 -43q93 -32 159 -70l-77 -162q-188 115 -301 115q-204 0 -316 -195q-88 -152 -88 -348q0 -193 94 -336q108 -166 293 -166q173 0 330 89l78 -134q-120 -64 -185 -86q-81 -27 -188 -32l-6 -80q19 8 51 8q79 0 132 -51 q52 -51 52 -131q0 -83 -56 -130q-58 -49 -140 -49q-131 0 -178 99l75 69q56 -65 105 -65q71 0 71 70q0 79 -67 79q-29 0 -72 -30l-94 43l10 174q-240 30 -373 241q-114 185 -114 443z" />
<glyph unicode="&#xc8;" horiz-adv-x="1001" d="M139 0v1311h735v-148h-552v-395h516v-154l-516 2v-460l546 2v-158h-729zM258 1589l94 133l432 -196l-100 -121z" />
<glyph unicode="&#xc9;" horiz-adv-x="960" d="M139 0v1311h735v-148h-552v-395h516v-154l-516 2v-460l546 2v-158h-729zM258 1528l430 196l96 -133l-432 -184z" />
<glyph unicode="&#xca;" horiz-adv-x="1001" d="M139 0v1311h735v-148h-552v-395h516v-154l-516 2v-460l546 2v-158h-729zM233 1343v146l283 231l291 -231v-146l-291 191z" />
<glyph unicode="&#xcb;" horiz-adv-x="1001" d="M139 0v1311h735v-148h-552v-395h516v-154l-516 2v-460l546 2v-158h-729zM217 1532q0 45 29 76q28 30 73 30q46 0 73 -30q28 -31 28 -76t-28 -76t-73 -31q-44 0 -73 31t-29 76zM645 1532q0 45 29 76q28 30 74 30q42 0 72 -31t30 -75q0 -45 -29 -76t-73 -31q-45 0 -74 31 t-29 76z" />
<glyph unicode="&#xcc;" horiz-adv-x="440" d="M-23 1589l97 133l430 -196l-98 -121zM139 0v1315h183v-1315h-183z" />
<glyph unicode="&#xcd;" horiz-adv-x="440" d="M-23 1528l431 196l96 -133l-430 -184zM139 0v1315h183v-1315h-183z" />
<glyph unicode="&#xce;" horiz-adv-x="440" d="M-45 1343v146l281 231l290 -231v-146l-290 191zM139 0v1315h183v-1315h-183z" />
<glyph unicode="&#xcf;" horiz-adv-x="440" d="M-84 1532q0 45 29 76q29 30 73 30q46 0 73 -30q28 -31 28 -76t-28 -76t-73 -31q-44 0 -73 31t-29 76zM139 0v1315h183v-1315h-183zM344 1532q0 45 29 76q28 30 73 30q43 0 73 -31t30 -75q0 -45 -29 -76t-74 -31q-44 0 -73 31t-29 76z" />
<glyph unicode="&#xd0;" horiz-adv-x="1157" d="M12 547v139h117v633q141 6 299 6q346 0 504 -158q159 -159 160 -505q2 -320 -165 -493t-487 -173q-62 0 -155 4t-156 4v543h-117zM311 152h185q195 0 303 151q98 134 98 336q0 555 -416 555q-71 0 -170 -4v-504h140v-139h-140v-395z" />
<glyph unicode="&#xd1;" horiz-adv-x="1167" d="M139 0v1319h152l614 -932v924h168v-1288l-129 -46q-185 333 -635 973v-948zM313 1526q28 42 87 71q61 30 112 31q52 2 144 -68q94 -71 128 -71q52 0 103 51l53 -123q-18 -22 -71 -45q-51 -22 -81 -22q-52 0 -150 70q-100 71 -126 71q-80 0 -143 -86z" />
<glyph unicode="&#xd2;" horiz-adv-x="1318" d="M76 659q0 278 160 465q169 199 442 199q272 0 436 -199q152 -187 152 -465q0 -297 -150 -487q-163 -205 -452 -205q-287 0 -445 209q-143 185 -143 483zM246 641q0 -201 106 -350q118 -166 312 -166t319 164q115 153 115 350q0 206 -107 360q-118 172 -317 172 q-200 0 -322 -170q-106 -151 -106 -360zM408 1589l96 133l430 -196l-98 -121z" />
<glyph unicode="&#xd3;" horiz-adv-x="1318" d="M76 659q0 278 160 465q169 199 442 199q272 0 436 -199q152 -187 152 -465q0 -297 -150 -487q-163 -205 -452 -205q-287 0 -445 209q-143 185 -143 483zM246 641q0 -201 106 -350q118 -166 312 -166t319 164q115 153 115 350q0 206 -107 360q-118 172 -317 172 q-200 0 -322 -170q-106 -151 -106 -360zM408 1528l430 196l96 -133l-430 -184z" />
<glyph unicode="&#xd4;" horiz-adv-x="1318" d="M76 659q0 278 160 465q169 199 442 199q272 0 436 -199q152 -187 152 -465q0 -297 -150 -487q-163 -205 -452 -205q-287 0 -445 209q-143 185 -143 483zM246 641q0 -201 106 -350q118 -166 312 -166t319 164q115 153 115 350q0 206 -107 360q-118 172 -317 172 q-200 0 -322 -170q-106 -151 -106 -360zM399 1364v145l283 232l291 -232v-145l-291 190z" />
<glyph unicode="&#xd5;" horiz-adv-x="1327" d="M76 659q0 278 160 465q169 199 442 199q272 0 436 -199q152 -187 152 -465q0 -297 -150 -487q-163 -205 -452 -205q-287 0 -445 209q-143 185 -143 483zM246 641q0 -201 106 -350q118 -166 312 -166t319 164q115 153 115 350q0 206 -107 360q-118 172 -317 172 q-200 0 -322 -170q-106 -151 -106 -360zM313 1546q29 44 87 72q61 30 112 31t144 -69q94 -71 128 -71q51 0 103 52l53 -123q-18 -22 -71 -45q-54 -23 -81 -23q-50 0 -150 71q-98 70 -126 70q-80 0 -143 -86z" />
<glyph unicode="&#xd6;" horiz-adv-x="1327" d="M76 659q0 278 160 465q169 199 442 199q272 0 436 -199q152 -187 152 -465q0 -297 -150 -487q-163 -205 -452 -205q-287 0 -445 209q-143 185 -143 483zM246 641q0 -201 106 -350q118 -166 312 -166t319 164q115 153 115 350q0 206 -107 360q-118 172 -317 172 q-200 0 -322 -170q-106 -151 -106 -360zM367 1532q0 47 28 76q28 30 74 30q43 0 73 -31q29 -30 29 -75q0 -47 -28 -76q-29 -31 -74 -31t-74 31q-28 29 -28 76zM797 1532q0 47 28 76q29 30 74 30q43 0 73 -31q29 -30 29 -75q0 -47 -28 -76q-29 -31 -74 -31t-74 31 q-28 29 -28 76z" />
<glyph unicode="&#xd8;" horiz-adv-x="1318" d="M66 659q0 279 159 465q169 199 443 199q62 0 118 -12l27 86l160 -49l-29 -95q155 -85 238 -252q73 -152 73 -342q0 -295 -151 -485q-164 -207 -451 -207q-54 0 -100 8l-35 -116l-160 49l35 117q-327 162 -327 634zM236 641q0 -135 51 -252q55 -127 157 -199l297 973 q-35 8 -77 8q-200 0 -322 -170q-106 -151 -106 -360zM600 129q33 -4 53 -4q195 0 320 164q114 151 114 350q0 300 -192 453z" />
<glyph unicode="&#xd9;" horiz-adv-x="1169" d="M139 471v840h183v-840q0 -352 262 -352q146 0 219 106q63 95 63 246v840h185v-840q0 -227 -125 -367q-124 -139 -348 -139q-217 0 -332 148q-107 136 -107 358zM322 1589l96 133l430 -196l-98 -121z" />
<glyph unicode="&#xda;" horiz-adv-x="1169" d="M139 471v840h183v-840q0 -352 262 -352q146 0 219 106q63 95 63 246v840h185v-840q0 -227 -125 -367q-124 -139 -348 -139q-217 0 -332 148q-107 136 -107 358zM322 1528l430 196l96 -133l-430 -184z" />
<glyph unicode="&#xdb;" horiz-adv-x="1169" d="M139 471v840h183v-840q0 -352 262 -352q146 0 219 106q63 95 63 246v840h185v-840q0 -227 -125 -367q-124 -139 -348 -139q-217 0 -332 148q-107 136 -107 358zM297 1364v145l283 232l290 -232v-145l-290 190z" />
<glyph unicode="&#xdc;" horiz-adv-x="1067" d="M139 471v840h183v-840q0 -352 262 -352q146 0 219 106q63 95 63 246v840h185v-840q0 -227 -125 -367q-124 -139 -348 -139q-217 0 -332 148q-107 136 -107 358zM260 1532q0 45 29 76q29 30 73 30q46 0 73 -30q28 -31 28 -76t-28 -76t-73 -31q-44 0 -73 31t-29 76z M688 1532q0 45 29 76q29 30 74 30q42 0 72 -31t30 -75q0 -45 -29 -76t-73 -31q-45 0 -74 31t-29 76z" />
<glyph unicode="&#xdd;" horiz-adv-x="1030" d="M70 1284l163 47l297 -608l293 608l156 -47l-363 -727v-557h-182v557zM301 1405l430 197l96 -134l-432 -184z" />
<glyph unicode="&#xde;" horiz-adv-x="1112" d="M123 -221v1655h172v-199q98 149 272 149q211 0 334 -170q110 -154 111 -370q2 -243 -97 -383q-114 -164 -344 -164q-143 0 -276 90v-608h-172zM295 559q78 -123 266 -123q148 0 217 125q58 102 58 258q0 165 -68 277q-83 131 -240 131q-161 0 -233 -152v-516z" />
<glyph unicode="&#xdf;" horiz-adv-x="1124" d="M109 0v1083q0 381 411 381q175 0 287 -92q115 -100 115 -272q0 -99 -74 -223q-91 32 -197 38q-67 5 -112 -38q-47 -44 -47 -109q0 -50 57 -84q37 -22 141 -55l162 -54q97 -40 138 -106q40 -65 40 -174q0 -136 -104 -230q-107 -96 -242 -96q-126 0 -207 29 q-92 33 -170 121l86 133q57 -80 121 -107q56 -24 160 -24q74 0 131 45t57 117q0 106 -160 159l-165 52q-201 68 -201 243q0 151 83 234q82 82 234 82q41 0 80 -6q27 41 27 55q0 124 -86 180q-74 47 -164 47q-116 0 -178 -65q-64 -67 -64 -181v-1083h-159z" />
<glyph unicode="&#xe0;" horiz-adv-x="1005" d="M94 260q0 166 101 240q67 47 247 90q64 15 222 31v129q0 66 -53 110q-52 43 -122 43q-112 0 -272 -131l-84 115q62 56 168 106q115 56 188 56q143 0 238 -88q96 -89 96 -230v-577q11 -41 43 -41q24 -2 86 43l33 -107q-67 -72 -168 -72q-84 0 -129 99q-70 -53 -104 -68 q-90 -41 -207 -41q-130 0 -206 82q-77 83 -77 211zM244 258q0 -74 41 -118t114 -44q81 0 164 43q101 51 101 131v207q-64 0 -156 -18q-28 -6 -117 -27q-145 -38 -147 -174zM279 1323l96 133l430 -196l-98 -121z" />
<glyph unicode="&#xe1;" horiz-adv-x="1005" d="M94 260q0 166 101 240q67 47 247 90q64 15 222 31v129q0 66 -53 110q-52 43 -122 43q-112 0 -272 -131l-84 115q62 56 168 106q115 56 188 56q143 0 238 -88q96 -89 96 -230v-577q11 -41 43 -41q24 -2 86 43l33 -107q-67 -72 -168 -72q-84 0 -129 99q-70 -53 -104 -68 q-90 -41 -207 -41q-130 0 -206 82q-77 83 -77 211zM244 258q0 -74 41 -118t114 -44q81 0 164 43q101 51 101 131v207q-64 0 -156 -18q-28 -6 -117 -27q-145 -38 -147 -174zM279 1262l430 196l96 -133l-430 -184z" />
<glyph unicode="&#xe2;" horiz-adv-x="1005" d="M94 260q0 166 101 240q67 47 247 90q64 15 222 31v129q0 66 -53 110q-52 43 -122 43q-112 0 -272 -131l-84 115q62 56 168 106q115 56 188 56q143 0 238 -88q96 -89 96 -230v-577q11 -41 43 -41q24 -2 86 43l33 -107q-67 -72 -168 -72q-84 0 -129 99q-70 -53 -104 -68 q-90 -41 -207 -41q-130 0 -206 82q-77 83 -77 211zM233 1077v146l283 231l291 -231v-146l-291 191zM244 258q0 -74 41 -118t114 -44q81 0 164 43q101 51 101 131v207q-64 0 -156 -18q-28 -6 -117 -27q-145 -38 -147 -174z" />
<glyph unicode="&#xe3;" horiz-adv-x="1005" d="M94 260q0 166 101 240q67 47 247 90q64 15 222 31v129q0 66 -53 110q-52 43 -122 43q-112 0 -272 -131l-84 115q62 56 168 106q115 56 188 56q143 0 238 -88q96 -89 96 -230v-577q11 -41 43 -41q24 -2 86 43l33 -107q-67 -72 -168 -72q-84 0 -129 99q-70 -53 -104 -68 q-90 -41 -207 -41q-130 0 -206 82q-77 83 -77 211zM164 1300q29 41 87 71q60 31 109 32q51 2 146 -69q94 -70 129 -70q47 0 102 51l54 -123q-16 -19 -71 -44q-52 -24 -81 -24q-53 0 -154 71t-125 71q-80 0 -143 -86zM244 258q0 -74 41 -118t114 -44q81 0 164 43 q101 51 101 131v207q-64 0 -156 -18q-28 -6 -117 -27q-145 -38 -147 -174z" />
<glyph unicode="&#xe4;" horiz-adv-x="1005" d="M94 260q0 166 101 240q67 47 247 90q64 15 222 31v129q0 66 -53 110q-52 43 -122 43q-112 0 -272 -131l-84 115q62 56 168 106q115 56 188 56q143 0 238 -88q96 -89 96 -230v-577q11 -41 43 -41q24 -2 86 43l33 -107q-67 -72 -168 -72q-84 0 -129 99q-70 -53 -104 -68 q-90 -41 -207 -41q-130 0 -206 82q-77 83 -77 211zM195 1225q0 46 28 75q29 31 74 31q43 0 73 -32q29 -30 29 -74q0 -47 -28 -76q-29 -31 -74 -31t-74 31q-28 29 -28 76zM244 258q0 -74 41 -118t114 -44q81 0 164 43q101 51 101 131v207q-64 0 -156 -18q-28 -6 -117 -27 q-145 -38 -147 -174zM625 1225q0 46 28 75q29 31 74 31q43 0 73 -32q29 -30 29 -74q0 -47 -28 -76q-29 -31 -74 -31t-74 31q-28 29 -28 76z" />
<glyph unicode="&#xe5;" horiz-adv-x="1005" d="M94 260q0 166 101 240q67 47 247 90q64 15 222 31v129q0 66 -53 110q-52 43 -122 43q-112 0 -272 -131l-84 115q62 56 168 106q115 56 188 56q143 0 238 -88q96 -89 96 -230v-577q11 -41 43 -41q24 -2 86 43l33 -107q-67 -72 -168 -72q-84 0 -129 99q-70 -53 -104 -68 q-90 -41 -207 -41q-130 0 -206 82q-77 83 -77 211zM244 258q0 -74 41 -118t114 -44q81 0 164 43q101 51 101 131v207q-64 0 -156 -18q-28 -6 -117 -27q-145 -38 -147 -174zM307 1337q0 78 52 127t133 49q80 0 133 -48t53 -128t-52 -129t-134 -49q-81 0 -133 49t-52 129z M406 1337q0 -90 86 -90q88 0 88 90q0 88 -88 88q-86 0 -86 -88z" />
<glyph unicode="&#xe6;" horiz-adv-x="1587" d="M84 260q0 167 100 240q63 46 248 90q110 26 221 37v123q0 67 -52 110t-122 43q-112 0 -272 -131l-84 115q63 55 168 106q120 56 188 56q210 0 299 -170q133 159 365 159q163 0 270 -135q96 -123 96 -293v-125h-696q0 -133 51 -229q34 -67 123 -106q79 -35 162 -35 q59 0 143 45q75 39 125 86l82 -115q-168 -156 -366 -156q-256 0 -375 175l-80 -74q-37 -26 -107 -68q-91 -41 -204 -41q-130 0 -206 82q-77 83 -77 211zM231 258q0 -162 158 -162q81 0 164 43q100 51 100 131v207q-47 0 -172 -24q-132 -27 -166 -45q-84 -45 -84 -150z M827 614h521v66q0 223 -222 223q-150 0 -213 -74q-47 -56 -86 -215z" />
<glyph unicode="&#xe7;" horiz-adv-x="989" d="M90 496q0 232 119 383q128 161 356 159q181 -2 322 -108l-86 -135q-134 104 -256 104q-147 0 -223 -139q-61 -112 -62 -273q-2 -150 74 -254q83 -116 227 -116q148 0 275 112l79 -106q-146 -143 -344 -148l-6 -71q19 8 51 8q80 0 133 -52q54 -53 54 -130q0 -81 -58 -130 t-141 -49q-130 0 -176 99l76 69q56 -65 102 -65q74 0 74 70q0 79 -70 79q-28 0 -69 -30l-97 43l11 170q-207 37 -301 227q-64 131 -64 283z" />
<glyph unicode="&#xe8;" horiz-adv-x="1017" d="M90 506q0 234 123 379q129 153 358 153q169 0 269 -108q100 -107 100 -279v-125h-676q0 -302 174 -381q67 -30 142 -30q120 0 268 131l80 -115q-164 -156 -365 -156q-278 0 -397 209q-76 133 -76 322zM279 655h499v25q0 223 -221 223q-122 0 -188 -63q-57 -57 -90 -185z M301 1323l94 133l432 -196l-100 -121z" />
<glyph unicode="&#xe9;" horiz-adv-x="1017" d="M90 506q0 234 123 379q129 153 358 153q169 0 269 -108q100 -107 100 -279v-125h-676q0 -302 174 -381q67 -30 142 -30q120 0 268 131l80 -115q-164 -156 -365 -156q-278 0 -397 209q-76 133 -76 322zM279 655h499v25q0 223 -221 223q-122 0 -188 -63q-57 -57 -90 -185z M279 1262l430 196l96 -133l-430 -184z" />
<glyph unicode="&#xea;" horiz-adv-x="1017" d="M90 506q0 234 123 379q129 153 358 153q169 0 269 -108q100 -107 100 -279v-125h-676q0 -302 174 -381q67 -30 142 -30q120 0 268 131l80 -115q-164 -156 -365 -156q-278 0 -397 209q-76 133 -76 322zM276 1077v146l283 231l291 -231v-146l-291 191zM279 655h499v25 q0 223 -221 223q-122 0 -188 -63q-57 -57 -90 -185z" />
<glyph unicode="&#xeb;" horiz-adv-x="1017" d="M90 506q0 234 123 379q129 153 358 153q169 0 269 -108q100 -107 100 -279v-125h-676q0 -302 174 -381q67 -30 142 -30q120 0 268 131l80 -115q-164 -156 -365 -156q-278 0 -397 209q-76 133 -76 322zM217 1225q0 44 29 75t73 31q45 0 73 -31t28 -75q0 -45 -28 -76 t-73 -31q-44 0 -73 31t-29 76zM279 655h499v25q0 223 -221 223q-122 0 -188 -63q-57 -57 -90 -185zM645 1225q0 44 29 75t74 31q42 0 72 -32t30 -74q0 -45 -29 -76t-73 -31q-45 0 -74 31t-29 76z" />
<glyph unicode="&#xec;" horiz-adv-x="509" d="M0 1323l94 133l432 -196l-100 -121zM158 0v1014h164v-1014h-164z" />
<glyph unicode="&#xed;" horiz-adv-x="479" d="M0 1262l430 196l96 -133l-432 -184zM158 0v1014h164v-1014h-164z" />
<glyph unicode="&#xee;" horiz-adv-x="430" d="M-45 1077v146l281 231l290 -231v-146l-290 191zM158 0v1014h164v-1014h-164z" />
<glyph unicode="&#xef;" horiz-adv-x="423" d="M-90 1225q0 44 28 75t72 31q45 0 74 -31t29 -75q0 -45 -29 -76t-74 -31q-44 0 -72 31t-28 76zM158 0v1014h164v-1014h-164zM338 1225q0 44 29 75t73 31q43 0 73 -32q30 -31 30 -74q0 -45 -29 -76t-74 -31q-44 0 -73 31t-29 76z" />
<glyph unicode="&#xf0;" horiz-adv-x="1153" d="M66 498q0 250 130 396t373 146q157 0 246 -90q-21 60 -88 164h-293v141h193q-87 106 -140 150l138 92q104 -100 202 -242h279l-2 -141h-193q153 -281 152 -487q-4 -294 -119 -463q-137 -199 -418 -199q-210 0 -340 166q-120 150 -120 367zM246 524q-2 -155 71 -266 q83 -131 230 -131q171 0 262 123q84 113 84 287q0 109 -16 196q-119 168 -310 168q-159 0 -243 -113q-76 -100 -78 -264z" />
<glyph unicode="&#xf1;" horiz-adv-x="995" d="M139 0v1014h162v-115q78 75 133 105q76 43 162 43q143 0 240 -106q96 -105 96 -249v-692h-162v666q0 99 -45 165q-51 76 -147 76q-86 0 -175 -65q-102 -74 -102 -170v-672h-162zM207 1300q29 41 87 71q60 31 109 32q51 2 146 -69q94 -70 129 -70q46 0 102 51l54 -123 q-16 -19 -71 -44q-53 -24 -81 -24q-53 0 -154 71t-125 71q-80 0 -143 -86z" />
<glyph unicode="&#xf2;" horiz-adv-x="1112" d="M90 516q0 265 166 412q136 121 322 121q183 0 313 -121q160 -146 160 -412q0 -183 -95 -334q-129 -205 -383 -205q-275 0 -399 207q-84 140 -84 332zM266 504q0 -160 68 -266q79 -127 231 -127q159 0 238 129q69 108 69 274q0 158 -63 266q-77 131 -223 131 q-163 0 -248 -127q-72 -111 -72 -280zM365 1323l96 133l430 -196l-98 -121z" />
<glyph unicode="&#xf3;" horiz-adv-x="1112" d="M90 516q0 265 166 412q136 121 322 121q183 0 313 -121q160 -146 160 -412q0 -183 -95 -334q-129 -205 -383 -205q-275 0 -399 207q-84 140 -84 332zM266 504q0 -160 68 -266q79 -127 231 -127q159 0 238 129q69 108 69 274q0 158 -63 266q-77 131 -223 131 q-163 0 -248 -127q-72 -111 -72 -280zM365 1262l430 196l96 -133l-430 -184z" />
<glyph unicode="&#xf4;" horiz-adv-x="1112" d="M90 516q0 265 166 412q136 121 322 121q183 0 313 -121q160 -146 160 -412q0 -183 -95 -334q-129 -205 -383 -205q-275 0 -399 207q-84 140 -84 332zM266 504q0 -160 68 -266q79 -127 231 -127q159 0 238 129q69 108 69 274q0 158 -63 266q-77 131 -223 131 q-163 0 -248 -127q-72 -111 -72 -280zM299 1077v146l281 231l290 -231v-146l-290 191z" />
<glyph unicode="&#xf5;" horiz-adv-x="1112" d="M90 516q0 265 166 412q136 121 322 121q183 0 313 -121q160 -146 160 -412q0 -183 -95 -334q-129 -205 -383 -205q-275 0 -399 207q-84 140 -84 332zM266 504q0 -160 68 -266q79 -127 231 -127q159 0 238 129q69 108 69 274q0 158 -63 266q-77 131 -223 131 q-163 0 -248 -127q-72 -111 -72 -280zM270 1300q28 44 87 72q61 30 112 31t144 -69q92 -70 128 -70q52 0 103 51l53 -123q-18 -22 -71 -45q-54 -23 -81 -23q-50 0 -150 71t-126 71q-80 0 -143 -86z" />
<glyph unicode="&#xf6;" horiz-adv-x="1112" d="M90 516q0 265 166 412q136 121 322 121q183 0 313 -121q160 -146 160 -412q0 -183 -95 -334q-129 -205 -383 -205q-275 0 -399 207q-84 140 -84 332zM260 1225q0 44 29 75t73 31q45 0 73 -31t28 -75q0 -45 -28 -76t-73 -31q-44 0 -73 31t-29 76zM266 504q0 -160 68 -266 q79 -127 231 -127q159 0 238 129q69 108 69 274q0 158 -63 266q-77 131 -223 131q-163 0 -248 -127q-72 -111 -72 -280zM688 1225q0 44 29 75t74 31q42 0 72 -32t30 -74q0 -45 -29 -76t-73 -31q-45 0 -74 31t-29 76z" />
<glyph unicode="&#xf7;" horiz-adv-x="1015" d="M109 563v144h804v-144h-804zM418 326q0 54 35 95q34 40 88 40t88 -40q35 -41 35 -95q0 -55 -35 -96q-34 -40 -88 -40t-88 40q-35 41 -35 96zM418 948q0 54 35 95q34 40 88 40t88 -40q35 -41 35 -95t-35 -95q-34 -40 -88 -40t-88 40q-35 41 -35 95z" />
<glyph unicode="&#xf8;" horiz-adv-x="1118" d="M80 516q0 265 166 412q134 121 319 121q16 0 58 -5l43 140l159 -49l-43 -140q256 -135 256 -479q0 -185 -94 -334q-129 -205 -381 -205q-41 0 -88 7l-39 -125l-160 49l39 127q-119 66 -180 207q-55 122 -55 274zM256 504q0 -209 106 -316l220 723h-7q-162 0 -247 -127 q-72 -111 -72 -280zM514 113q16 -2 41 -2q159 0 238 129q69 108 69 274q0 236 -123 338z" />
<glyph unicode="&#xf9;" horiz-adv-x="987" d="M139 328v686h162v-678q0 -227 180 -227q87 0 185 71t98 156v678h160v-1014h-146q-2 8 -4.5 23t-7 38.5t-8.5 44.5q-152 -143 -316 -143q-139 0 -225 115q-78 106 -78 250zM301 1323l94 133l432 -196l-100 -121z" />
<glyph unicode="&#xfa;" horiz-adv-x="987" d="M139 328v686h162v-678q0 -227 180 -227q87 0 185 71t98 156v678h160v-1014h-146q-2 8 -4.5 23t-7 38.5t-8.5 44.5q-152 -143 -316 -143q-139 0 -225 115q-78 106 -78 250zM279 1262l430 196l96 -133l-430 -184z" />
<glyph unicode="&#xfb;" horiz-adv-x="987" d="M139 328v686h162v-678q0 -227 180 -227q87 0 185 71t98 156v678h160v-1014h-146q-2 8 -4.5 23t-7 38.5t-8.5 44.5q-152 -143 -316 -143q-139 0 -225 115q-78 106 -78 250zM256 1077v146l281 231l290 -231v-146l-290 191z" />
<glyph unicode="&#xfc;" horiz-adv-x="987" d="M139 328v686h162v-678q0 -227 180 -227q87 0 185 71t98 156v678h160v-1014h-146q-2 8 -4.5 23t-7 38.5t-8.5 44.5q-152 -143 -316 -143q-139 0 -225 115q-78 106 -78 250zM217 1225q0 44 29 75t73 31q45 0 73 -31t28 -75q0 -45 -28 -76t-73 -31q-44 0 -73 31t-29 76z M645 1225q0 44 29 75t74 31q42 0 72 -32t30 -74q0 -45 -29 -76t-73 -31q-45 0 -74 31t-29 76z" />
<glyph unicode="&#xfd;" horiz-adv-x="983" d="M45 -365l51 146q58 -28 103 -29q95 -2 172 137l84 197l-394 893l158 43l309 -725l265 723l145 -35l-428 -1157q-35 -97 -128 -163t-196 -66q-34 0 -141 36zM252 1292l430 197l96 -133l-430 -185z" />
<glyph unicode="&#xfe;" horiz-adv-x="1069" d="M123 -399v1802h170v-545q111 166 303 166q200 0 311 -145q102 -132 103 -338q2 -251 -99 -396q-116 -165 -354 -165q-84 0 -135 26l-123 78v-483h-176zM299 698l2 -499q31 -42 119 -64q69 -20 137 -20q145 0 219 137q58 110 58 266q0 151 -56 246q-69 117 -211 117 q-83 0 -157 -53t-111 -130z" />
<glyph unicode="&#xff;" horiz-adv-x="956" d="M55 -365l51 146q58 -28 103 -29q95 -2 172 137l84 197l-391 893l155 43l312 -725l264 723l143 -35l-428 -1157q-35 -97 -128 -163t-193 -66q-37 0 -144 36zM172 1225q0 44 29 75t73 31q45 0 73 -31t28 -75q0 -45 -28 -76t-73 -31q-44 0 -73 31t-29 76zM600 1225 q0 44 29 75t73 31q43 0 73 -32q30 -31 30 -74q0 -45 -29 -76t-74 -31q-44 0 -73 31t-29 76z" />
<glyph unicode="&#x152;" horiz-adv-x="2105" d="M86 698q0 278 160 459q166 189 440 189q381 0 561 -426v409h727v-147h-542v-396h522v-153h-529l2 -461h547v-172h-727v457q-183 -463 -573 -463q-287 0 -445 215q-143 191 -143 489zM258 678q0 -202 104 -352q118 -172 312 -172q192 0 317 170q113 157 113 354 q0 206 -105 350q-117 162 -315 162q-200 0 -319 -160q-107 -146 -107 -352z" />
<glyph unicode="&#x153;" horiz-adv-x="1906" d="M80 516q0 265 166 412q134 121 319 121q156 0 279 -93q122 -92 168 -243q49 154 168 240q118 85 282 85q168 0 269 -108q100 -107 100 -279v-125h-676q0 -303 172 -381q67 -30 141 -30q121 0 269 131l82 -115q-163 -156 -365 -156q-362 0 -448 338q-113 -336 -443 -336 q-276 0 -399 207q-84 141 -84 332zM256 504q0 -160 68 -266q79 -127 231 -127q159 0 238 129q69 108 69 274q0 158 -63 266q-77 131 -224 131q-162 0 -247 -127q-72 -111 -72 -280zM1169 655h500v25q0 223 -221 223q-122 0 -185 -60q-64 -61 -94 -188z" />
<glyph unicode="&#x178;" horiz-adv-x="987" d="M70 1284l163 47l297 -608l293 608l156 -47l-363 -727v-557h-182v557zM238 1532q0 47 28 76q28 30 74 30q43 0 73 -31q29 -30 29 -75q0 -47 -28 -76q-29 -31 -74 -31t-74 31q-28 29 -28 76zM668 1532q0 47 28 76q28 30 74 30q43 0 73 -31q29 -30 29 -75q0 -47 -28 -76 q-29 -31 -74 -31t-74 31q-28 29 -28 76z" />
<glyph unicode="&#x2c6;" horiz-adv-x="690" d="M72 1077v146l282 231l291 -231v-146l-291 191z" />
<glyph unicode="&#x2dc;" horiz-adv-x="768" d="M88 1300q28 44 87 72q61 30 112 31t144 -69q92 -70 128 -70q47 0 103 51l53 -123q-18 -22 -71 -45q-54 -23 -81 -23q-52 0 -152 71t-124 71q-80 0 -146 -86z" />
<glyph unicode="&#x2000;" horiz-adv-x="879" />
<glyph unicode="&#x2001;" horiz-adv-x="1759" />
<glyph unicode="&#x2002;" horiz-adv-x="879" />
<glyph unicode="&#x2003;" horiz-adv-x="1759" />
<glyph unicode="&#x2004;" horiz-adv-x="586" />
<glyph unicode="&#x2005;" horiz-adv-x="439" />
<glyph unicode="&#x2006;" horiz-adv-x="293" />
<glyph unicode="&#x2007;" horiz-adv-x="293" />
<glyph unicode="&#x2008;" horiz-adv-x="219" />
<glyph unicode="&#x2009;" horiz-adv-x="351" />
<glyph unicode="&#x200a;" horiz-adv-x="97" />
<glyph unicode="&#x2010;" horiz-adv-x="778" d="M102 547v190h574v-190h-574z" />
<glyph unicode="&#x2011;" horiz-adv-x="778" d="M102 547v190h574v-190h-574z" />
<glyph unicode="&#x2012;" horiz-adv-x="778" d="M102 547v190h574v-190h-574z" />
<glyph unicode="&#x2013;" d="M70 598v145h884v-145h-884z" />
<glyph unicode="&#x2014;" horiz-adv-x="2048" d="M55 598v145h1938v-145h-1938z" />
<glyph unicode="&#x2018;" horiz-adv-x="436" d="M102 1057h199q0 73 25 203q23 120 55 190l-90 25q-188 -245 -189 -418z" />
<glyph unicode="&#x2019;" horiz-adv-x="493" d="M96 1081l90 -24q188 245 189 418h-199q0 -78 -24 -201q-23 -124 -56 -193z" />
<glyph unicode="&#x201a;" horiz-adv-x="438" d="M59 68q0 54 42 98q42 43 98 43q53 0 95 -44q42 -43 42 -97q-2 -92 -41 -177q-22 -46 -96 -153l-113 -8q2 2 59 92q37 57 45 98q-131 6 -131 148z" />
<glyph unicode="&#x201c;" horiz-adv-x="907" d="M182 1057h199q0 73 25 203q23 120 55 190l-90 25q-188 -245 -189 -418zM592 1057h199q0 79 24 203q23 120 55 190l-90 25q-186 -244 -188 -418z" />
<glyph unicode="&#x201d;" horiz-adv-x="907" d="M63 1081l91 -24q186 244 188 418h-199q0 -78 -24 -201q-23 -124 -56 -193zM473 1081l90 -24q188 245 189 418h-199q0 -73 -25 -201q-24 -127 -55 -193z" />
<glyph unicode="&#x201e;" horiz-adv-x="854" d="M63 -147l91 -25q186 244 188 418h-199q0 -78 -24 -201q-23 -122 -56 -192zM473 -147l90 -25q188 245 189 418h-199q0 -73 -25 -201q-23 -126 -55 -192z" />
<glyph unicode="&#x2022;" horiz-adv-x="577" d="M98 596q0 82 54 144q53 61 135 61q81 0 134 -62q52 -61 52 -143t-52 -144q-53 -63 -134 -63q-83 0 -136 62t-53 145z" />
<glyph unicode="&#x2026;" horiz-adv-x="1271" d="M123 109q0 64 37 102q38 39 100 39q60 0 98 -39q37 -38 37 -102q0 -62 -37 -102t-98 -40q-62 0 -99 40q-38 41 -38 102zM510 109q0 64 37 102q37 39 100 39q61 0 98 -39q37 -38 37 -102q0 -62 -37 -102t-98 -40q-62 0 -99 40q-38 41 -38 102zM897 109q0 64 37 102 q38 39 100 39t99 -39q36 -37 36 -102q0 -63 -36 -102q-37 -40 -99 -40t-99 40q-38 41 -38 102z" />
<glyph unicode="&#x202f;" horiz-adv-x="351" />
<glyph unicode="&#x2039;" horiz-adv-x="653" d="M115 592l311 332l145 -6l-268 -332l268 -330l-145 -6z" />
<glyph unicode="&#x203a;" horiz-adv-x="649" d="M96 256l266 330l-266 332l146 6l313 -332l-313 -342z" />
<glyph unicode="&#x205f;" horiz-adv-x="439" />
<glyph unicode="&#x2122;" horiz-adv-x="1312" d="M31 1208v107h508v-107h-183v-563h-131v563h-194zM590 645v674h160l182 -469l182 469h154v-674h-131v408l-156 -408h-111l-157 412v-412h-123z" />
<glyph unicode="&#x25fc;" horiz-adv-x="1044" d="M0 0v1044h1044v-1044h-1044z" />
</font>
</defs>
</svg>
